<svg xmlns="http://www.w3.org/2000/svg" xmlns:xlink="http://www.w3.org/1999/xlink" width="200" zoomAndPan="magnify" viewBox="0 0 150 149.999998" height="200" preserveAspectRatio="xMidYMid meet" version="1.0"><defs><clipPath id="81ea7622d5"><path d="M 83 4.25 L 106 4.25 L 106 29 L 83 29 Z M 83 4.25 " clip-rule="nonzero"/></clipPath><clipPath id="b11bbda88e"><path d="M 19 68 L 39 68 L 39 75.5 L 19 75.5 Z M 19 68 " clip-rule="nonzero"/></clipPath><clipPath id="080c2cad6e"><path d="M 54 71 L 68 71 L 68 75.5 L 54 75.5 Z M 54 71 " clip-rule="nonzero"/></clipPath><clipPath id="ec909704af"><path d="M 41 89 L 55 89 L 55 145.742188 L 41 145.742188 Z M 41 89 " clip-rule="nonzero"/></clipPath></defs><path fill="#4b2d25" d="M 122.03125 58.5625 C 118.761719 57.820312 115.113281 58.496094 111.761719 59.308594 C 111.527344 59.304688 111.292969 59.300781 111.058594 59.304688 C 107.757812 59.355469 104.519531 59.777344 101.21875 59.3125 C 95.230469 58.46875 89.535156 56.367188 83.433594 56.285156 C 82.222656 56.269531 81.582031 57.148438 81.515625 58.085938 C 79.152344 57.964844 76.792969 57.921875 74.480469 57.902344 C 74.347656 57.898438 74.21875 57.898438 74.089844 57.898438 C 65.972656 57.269531 57.863281 56.273438 49.734375 56.644531 C 48.953125 56.542969 48.183594 56.496094 47.441406 56.546875 C 47.164062 55.324219 45.910156 54.351562 44.609375 55.265625 C 41.089844 57.746094 36.933594 57.617188 32.8125 57.8125 C 28.421875 58.023438 24.441406 60.082031 20.125 60.632812 C 19.027344 60.773438 18.164062 61.433594 18.136719 62.621094 C 18 68.171875 25.082031 66.917969 28.492188 66.113281 C 30.953125 65.535156 33.171875 64.773438 35.738281 64.785156 C 37.898438 64.792969 39.929688 65.480469 41.976562 66.097656 C 41.859375 66.28125 41.753906 66.46875 41.664062 66.667969 C 41.246094 67.601562 41.207031 68.574219 41.523438 69.546875 C 42.203125 71.644531 44.664062 72.496094 46.671875 72.363281 C 49.171875 72.195312 51.253906 70.097656 53.59375 69.363281 C 56.671875 68.394531 60.203125 69.246094 63.359375 69.398438 C 66.339844 69.542969 69.308594 69.441406 72.285156 69.273438 C 74.972656 69.121094 77.699219 68.878906 80.359375 69.421875 C 82.65625 69.886719 84.378906 71.527344 86.558594 72.304688 C 88.84375 73.125 91.46875 73.089844 93.855469 72.992188 C 97.28125 72.851562 100.480469 72.566406 103.890625 72.886719 C 107.050781 73.183594 110.4375 73.617188 113.570312 72.886719 C 116.832031 72.128906 117.128906 68.710938 114.683594 66.867188 C 117.46875 66.769531 120.171875 66.375 122.84375 65.15625 C 126.363281 63.546875 125.664062 59.390625 122.03125 58.5625 " fill-opacity="1" fill-rule="nonzero"/><path fill="#d6ac8e" d="M 93.214844 33.46875 L 107.128906 13.515625 C 108.582031 11.433594 108.070312 8.574219 105.992188 7.121094 C 103.910156 5.671875 101.050781 6.179688 99.597656 8.261719 L 85.679688 28.214844 L 93.214844 33.46875 " fill-opacity="1" fill-rule="nonzero"/><g clip-path="url(#81ea7622d5)"><path fill="#ab8970" d="M 85.679688 28.214844 L 99.597656 8.261719 C 101.050781 6.179688 103.910156 5.671875 105.992188 7.121094 L 103.816406 5.605469 L 103.816406 5.613281 C 101.746094 4.25 98.957031 4.773438 97.527344 6.816406 L 83.609375 26.773438 L 85.679688 28.214844 " fill-opacity="1" fill-rule="nonzero"/></g><path fill="#4b2d25" d="M 97.867188 59.835938 L 105.152344 49.390625 C 107.121094 46.566406 106.429688 42.6875 103.609375 40.71875 L 75.285156 20.964844 C 72.464844 18.996094 68.582031 19.6875 66.617188 22.507812 L 42.046875 57.734375 C 60.660156 58.0625 79.25 59.503906 97.867188 59.835938 " fill-opacity="1" fill-rule="nonzero"/><path fill="#73574b" d="M 88.445312 59.585938 L 95.96875 48.800781 C 97.476562 46.640625 96.945312 43.664062 94.78125 42.15625 L 93.566406 41.308594 C 91.402344 39.800781 88.429688 40.328125 86.917969 42.492188 L 75.375 59.039062 C 79.734375 59.246094 84.089844 59.433594 88.445312 59.585938 " fill-opacity="1" fill-rule="nonzero"/><path fill="#73574b" d="M 64.539062 58.527344 L 79.386719 37.238281 C 80.894531 35.074219 80.363281 32.101562 78.203125 30.589844 L 76.984375 29.742188 C 74.824219 28.234375 71.847656 28.761719 70.339844 30.925781 L 51.46875 57.984375 C 55.824219 58.132812 60.179688 58.324219 64.539062 58.527344 " fill-opacity="1" fill-rule="nonzero"/><path fill="#73574b" d="M 113.085938 61.984375 C 112.011719 60.90625 109.1875 61.300781 107.914062 61.511719 C 104.644531 62.050781 101.628906 63.042969 98.277344 63.179688 C 91.101562 63.480469 83.953125 61.65625 76.8125 61.054688 C 73.46875 60.777344 70.121094 60.859375 66.769531 60.726562 C 63.226562 60.585938 59.695312 60.136719 56.171875 59.710938 C 49.640625 58.914062 42.941406 58.039062 36.375 58.960938 C 33.269531 59.394531 30.304688 60.191406 27.417969 61.414062 C 25.574219 62.195312 23.328125 62.980469 22.511719 64.96875 C 22.417969 65.199219 22.613281 65.457031 22.824219 65.519531 C 26.140625 66.503906 29.257812 65.0625 32.46875 64.335938 C 36.1875 63.5 40.167969 63.359375 44.023438 63.332031 C 44.21875 63.335938 44.414062 63.34375 44.613281 63.351562 C 46.238281 63.4375 47 64.613281 47.71875 65.902344 C 48.496094 67.296875 49.707031 67.238281 51.179688 67.113281 C 54.203125 66.855469 57.195312 66.28125 60.199219 65.894531 C 63.300781 65.5 66.308594 65.554688 69.410156 65.886719 C 72.265625 66.191406 75.097656 66.597656 77.96875 66.730469 C 81.339844 66.886719 84.519531 67.136719 87.765625 68.140625 C 92.753906 69.683594 97.746094 70.734375 102.988281 70.726562 C 104.175781 70.726562 105.535156 70.34375 105.921875 69.09375 C 106.398438 67.527344 102.335938 65.398438 106.054688 64.90625 C 106.71875 64.816406 115.46875 64.367188 113.085938 61.984375 " fill-opacity="1" fill-rule="nonzero"/><g clip-path="url(#b11bbda88e)"><path fill="#4b2d25" d="M 38.03125 69.554688 C 36.476562 68.550781 25.710938 68.085938 20.355469 72.84375 C 17.550781 75.332031 22.992188 75.675781 24.398438 75.605469 C 31.226562 75.253906 36.535156 72.398438 37.960938 71.507812 C 38.910156 70.914062 39.367188 70.417969 38.03125 69.554688 " fill-opacity="1" fill-rule="nonzero"/></g><path fill="#73574b" d="M 29.667969 70.550781 C 27.390625 70.476562 23.339844 70.441406 21.792969 72.484375 C 21.082031 73.421875 21.171875 74.585938 22.414062 74.898438 C 22.625 74.953125 25.320312 74.027344 26.140625 73.648438 C 27.414062 73.058594 29.160156 72.300781 29.980469 71.097656 C 30.144531 70.859375 29.925781 70.5625 29.667969 70.550781 " fill-opacity="1" fill-rule="nonzero"/><path fill="#4b2d25" d="M 119.675781 68.976562 C 120.566406 69.535156 123.886719 71.320312 128.160156 71.539062 C 129.042969 71.585938 132.445312 71.371094 130.691406 69.8125 C 127.339844 66.835938 120.605469 67.125 119.632812 67.753906 C 118.796875 68.292969 119.082031 68.605469 119.675781 68.976562 " fill-opacity="1" fill-rule="nonzero"/><path fill="#73574b" d="M 124.667969 68.71875 C 125.183594 69.472656 126.273438 69.945312 127.070312 70.316406 C 127.585938 70.550781 129.273438 71.132812 129.402344 71.101562 C 130.179688 70.902344 130.238281 70.175781 129.792969 69.589844 C 128.824219 68.308594 126.289062 68.332031 124.863281 68.378906 C 124.703125 68.386719 124.566406 68.570312 124.667969 68.71875 " fill-opacity="1" fill-rule="nonzero"/><g clip-path="url(#080c2cad6e)"><path fill="#4b2d25" d="M 55.535156 72.820312 C 56.425781 73.375 59.746094 75.164062 64.019531 75.382812 C 64.902344 75.429688 68.304688 75.214844 66.550781 73.65625 C 63.199219 70.679688 56.460938 70.96875 55.492188 71.597656 C 54.65625 72.136719 54.941406 72.449219 55.535156 72.820312 " fill-opacity="1" fill-rule="nonzero"/></g><path fill="#73574b" d="M 60.527344 72.5625 C 61.042969 73.316406 62.136719 73.789062 62.929688 74.15625 C 63.445312 74.394531 65.132812 74.976562 65.261719 74.941406 C 66.039062 74.746094 66.09375 74.015625 65.652344 73.429688 C 64.683594 72.152344 62.152344 72.175781 60.722656 72.222656 C 60.5625 72.226562 60.425781 72.414062 60.527344 72.5625 " fill-opacity="1" fill-rule="nonzero"/><path fill="#f3eddf" d="M 21.171875 64.546875 C 20.886719 64.101562 20.667969 63.742188 20.53125 63.226562 C 20.402344 62.746094 20.777344 62.417969 20.960938 62.03125 C 21.0625 61.816406 20.972656 61.609375 20.757812 61.527344 C 19.804688 61.164062 19.089844 62.25 19.144531 63.074219 C 19.164062 63.394531 19.269531 63.726562 19.445312 64.027344 C 19.46875 64.191406 19.558594 64.300781 19.675781 64.363281 C 19.964844 64.714844 20.351562 64.976562 20.792969 65.042969 C 21.058594 65.078125 21.347656 64.824219 21.171875 64.546875 " fill-opacity="1" fill-rule="nonzero"/><path fill="#f3eddf" d="M 45.039062 69.644531 C 45.140625 69.714844 45.121094 69.683594 44.988281 69.542969 C 44.894531 69.449219 44.769531 69.382812 44.664062 69.300781 C 44.472656 69.140625 44.296875 68.996094 44.128906 68.808594 C 43.742188 68.371094 43.847656 68.078125 43.96875 67.570312 C 44.128906 66.902344 43.324219 66.421875 42.820312 66.902344 C 42.136719 67.554688 42.300781 68.621094 42.667969 69.390625 C 42.871094 69.824219 43.238281 70.144531 43.625 70.414062 C 44.054688 70.714844 44.445312 70.664062 44.917969 70.589844 C 45.402344 70.515625 45.363281 69.871094 45.039062 69.644531 " fill-opacity="1" fill-rule="nonzero"/><path fill="#f3eddf" d="M 24.59375 70.917969 C 23.777344 70.90625 22.882812 71.25 22.265625 71.773438 C 21.898438 72.082031 21.628906 72.253906 21.457031 72.734375 C 21.320312 73.117188 21.277344 73.601562 21.488281 73.953125 C 21.671875 74.261719 22.101562 74.246094 22.289062 73.953125 C 22.566406 73.519531 22.621094 72.898438 23.003906 72.511719 C 23.46875 72.050781 24.089844 71.894531 24.703125 71.742188 C 25.171875 71.625 25.058594 70.925781 24.59375 70.917969 " fill-opacity="1" fill-rule="nonzero"/><path fill="#f3eddf" d="M 65.417969 73.324219 C 65.175781 73.113281 64.898438 72.945312 64.609375 72.8125 C 64.222656 72.636719 63.90625 72.695312 63.511719 72.617188 C 63.042969 72.523438 62.21875 72.277344 61.835938 72.695312 C 61.785156 72.75 61.75 72.839844 61.777344 72.910156 C 61.976562 73.421875 62.652344 73.457031 63.105469 73.589844 C 63.410156 73.679688 63.609375 73.894531 63.886719 74.046875 C 64.160156 74.195312 64.136719 74.511719 64.480469 74.660156 C 64.921875 74.851562 65.476562 74.726562 65.609375 74.199219 L 65.628906 74.132812 C 65.699219 73.859375 65.636719 73.515625 65.417969 73.324219 " fill-opacity="1" fill-rule="nonzero"/><path fill="#f3eddf" d="M 92.015625 71.476562 C 91.855469 71.214844 91.710938 71.027344 91.382812 71.003906 C 90.582031 70.945312 89.847656 70.722656 89.089844 70.46875 C 88.011719 70.109375 86.835938 69.160156 85.671875 69.242188 C 85.589844 69.246094 85.503906 69.347656 85.566406 69.429688 C 86.140625 70.214844 87.210938 70.671875 88.03125 71.167969 C 89.085938 71.804688 90.15625 72.152344 91.382812 72.230469 C 91.597656 72.246094 91.804688 72.101562 91.914062 71.925781 C 91.945312 71.871094 91.980469 71.816406 92.015625 71.757812 C 92.070312 71.675781 92.066406 71.558594 92.015625 71.476562 " fill-opacity="1" fill-rule="nonzero"/><path fill="#f3eddf" d="M 113.675781 69.402344 C 113.660156 69.121094 113.507812 68.941406 113.25 68.84375 C 112.914062 68.714844 112.644531 69.042969 112.464844 69.222656 C 112.210938 69.476562 112.113281 69.679688 111.773438 69.84375 C 111.695312 69.882812 111.578125 69.855469 111.496094 69.851562 C 111.257812 69.84375 111 69.875 110.769531 69.925781 C 110.183594 70.058594 109.816406 70.667969 110.097656 71.222656 C 110.601562 72.214844 111.785156 71.59375 112.46875 71.269531 C 112.800781 71.113281 113.109375 70.855469 113.335938 70.566406 C 113.636719 70.179688 113.703125 69.882812 113.675781 69.402344 " fill-opacity="1" fill-rule="nonzero"/><path fill="#f3eddf" d="M 122.109375 62.261719 C 121.441406 62.539062 120.847656 62.949219 120.167969 63.203125 C 119.445312 63.476562 118.722656 63.433594 117.984375 63.589844 C 116.972656 63.808594 117.289062 65.222656 118.214844 65.292969 C 119.675781 65.40625 121.714844 64.3125 122.699219 63.277344 C 123.085938 62.875 122.707031 62.007812 122.109375 62.261719 " fill-opacity="1" fill-rule="nonzero"/><path fill="#f3eddf" d="M 128.148438 68.6875 C 127.742188 68.578125 127.269531 68.515625 126.847656 68.441406 C 126.441406 68.367188 126.101562 68.328125 125.722656 68.515625 C 125.386719 68.683594 125.4375 69.167969 125.722656 69.347656 C 125.984375 69.511719 126.238281 69.527344 126.535156 69.574219 C 126.734375 69.605469 127.203125 69.636719 127.355469 69.757812 C 127.820312 70.128906 128.371094 70.347656 128.816406 70.75 C 129.125 71.023438 129.742188 70.863281 129.699219 70.382812 C 129.628906 69.558594 128.945312 68.90625 128.148438 68.6875 " fill-opacity="1" fill-rule="nonzero"/><path fill="#f3eddf" d="M 53.015625 46.359375 C 51.503906 46.90625 50.488281 48.6875 49.460938 49.875 C 48.222656 51.3125 47.1875 52.777344 46.085938 54.292969 C 45.746094 54.765625 46.488281 55.308594 46.878906 54.90625 C 48.128906 53.601562 49.398438 52.382812 50.582031 50.996094 C 51.574219 49.832031 53.28125 48.445312 53.550781 46.890625 C 53.601562 46.597656 53.355469 46.234375 53.015625 46.359375 " fill-opacity="1" fill-rule="nonzero"/><path fill="#f3eddf" d="M 60.601562 35.445312 C 59.6875 35.890625 58.847656 37.109375 58.273438 37.933594 C 57.488281 39.054688 56.566406 40.113281 55.878906 41.296875 C 55.667969 41.664062 56.132812 41.953125 56.429688 41.722656 C 57.429688 40.933594 58.171875 39.804688 58.9375 38.796875 C 59.601562 37.921875 60.597656 36.710938 60.847656 35.632812 C 60.882812 35.484375 60.734375 35.378906 60.601562 35.445312 " fill-opacity="1" fill-rule="nonzero"/><path fill="#f3eddf" d="M 72.34375 21.808594 C 70.339844 21.632812 68.722656 23.027344 67.550781 24.484375 C 66.347656 25.980469 64.867188 27.792969 64.457031 29.699219 C 64.386719 30.019531 64.730469 30.183594 64.96875 29.996094 C 66.246094 29.011719 67.058594 27.492188 68.179688 26.320312 C 69.394531 25.054688 71.011719 24.511719 72.648438 24.058594 C 73.957031 23.695312 73.589844 21.917969 72.34375 21.808594 " fill-opacity="1" fill-rule="nonzero"/><path fill="#f3eddf" d="M 74.996094 31.941406 C 70.886719 32.230469 68.582031 35.839844 66.652344 39.0625 C 63.695312 44.007812 61.203125 49.296875 57.542969 53.800781 C 57.269531 54.136719 57.75 54.617188 58.015625 54.277344 C 59.519531 52.363281 61.269531 50.667969 62.679688 48.671875 C 64.144531 46.605469 65.488281 44.453125 66.984375 42.40625 C 68.898438 39.789062 71.222656 34.871094 74.996094 34.878906 C 76.902344 34.882812 76.871094 31.8125 74.996094 31.941406 " fill-opacity="1" fill-rule="nonzero"/><path fill="#f3eddf" d="M 91.566406 43.378906 C 89.09375 42.859375 87.0625 45.199219 85.738281 46.96875 C 83.800781 49.5625 82.351562 52.582031 80.160156 54.996094 C 79.933594 55.246094 80.21875 55.605469 80.515625 55.457031 C 82.886719 54.285156 83.683594 52.363281 85.09375 50.191406 C 86.804688 47.558594 88.496094 45.433594 91.566406 44.507812 C 92.097656 44.351562 92.160156 43.5 91.566406 43.378906 " fill-opacity="1" fill-rule="nonzero"/><path fill="#f3eddf" d="M 45.476562 62.226562 C 44.398438 60.136719 40.15625 61.074219 38.308594 61.328125 C 34.316406 61.867188 30.429688 63.164062 26.398438 63.414062 C 25.847656 63.445312 25.839844 64.300781 26.398438 64.28125 C 29.90625 64.15625 33.164062 62.761719 36.695312 62.742188 C 38.117188 62.734375 39.542969 62.476562 40.96875 62.433594 C 42.414062 62.390625 43.828125 63.246094 45.195312 62.925781 C 45.507812 62.851562 45.613281 62.488281 45.476562 62.226562 " fill-opacity="1" fill-rule="nonzero"/><path fill="#f3eddf" d="M 66.5625 63.917969 C 64.832031 62.632812 61.285156 63.660156 59.292969 63.796875 C 56.488281 63.992188 53.699219 64.671875 50.878906 64.484375 C 50.53125 64.460938 50.460938 65.011719 50.796875 65.085938 C 53.417969 65.679688 55.945312 65.101562 58.578125 64.859375 C 60.023438 64.726562 61.386719 64.644531 62.832031 64.808594 C 64.121094 64.957031 65.398438 65.289062 66.5625 64.644531 C 66.863281 64.476562 66.804688 64.097656 66.5625 63.917969 " fill-opacity="1" fill-rule="nonzero"/><path fill="#f3eddf" d="M 103.8125 68.59375 C 102.160156 67.683594 99.933594 67.820312 98.097656 67.414062 C 95.730469 66.886719 93.390625 66.253906 91.035156 65.675781 C 89.089844 65.203125 87.09375 64.917969 85.109375 64.691406 C 83.257812 64.480469 80.957031 63.820312 79.210938 64.667969 C 79.117188 64.714844 79.121094 64.863281 79.210938 64.910156 C 80.910156 65.777344 83.113281 65.394531 84.972656 65.695312 C 87.382812 66.085938 89.71875 66.761719 92.070312 67.410156 C 94.167969 67.992188 96.242188 68.667969 98.375 69.128906 C 100.078125 69.5 102.191406 70.078125 103.8125 69.269531 C 104.074219 69.136719 104.058594 68.726562 103.8125 68.59375 " fill-opacity="1" fill-rule="nonzero"/><path fill="#f3eddf" d="M 111.175781 62.402344 C 110.585938 62.542969 109.996094 62.675781 109.40625 62.796875 C 109.136719 62.855469 108.792969 62.867188 108.542969 62.992188 C 108.246094 63.144531 107.976562 63.324219 107.667969 63.457031 C 107.636719 63.472656 107.65625 63.507812 107.679688 63.511719 C 108.023438 63.539062 108.308594 63.625 108.636719 63.691406 C 108.910156 63.746094 109.246094 63.675781 109.523438 63.65625 C 110.175781 63.613281 110.8125 63.550781 111.449219 63.402344 C 112.101562 63.246094 111.824219 62.25 111.175781 62.402344 " fill-opacity="1" fill-rule="nonzero"/><path fill="#4b2d25" d="M 26.882812 123.195312 C 25.605469 123.195312 24.367188 122.675781 23.46875 121.734375 C 22.414062 120.628906 21.957031 119.082031 22.25 117.578125 C 24.628906 105.296875 23.308594 91.710938 18.628906 80.300781 C 17.640625 77.886719 18.796875 75.128906 21.207031 74.140625 C 23.617188 73.152344 26.378906 74.304688 27.367188 76.71875 C 31.910156 87.800781 33.6875 100.671875 32.464844 112.890625 L 49.152344 110.453125 C 51.734375 110.074219 54.128906 111.859375 54.503906 114.441406 C 54.882812 117.019531 53.09375 119.417969 50.515625 119.792969 L 27.566406 123.144531 C 27.339844 123.179688 27.109375 123.195312 26.882812 123.195312 Z M 26.882812 123.195312 " fill-opacity="1" fill-rule="nonzero"/><g clip-path="url(#ec909704af)"><path fill="#4b2d25" d="M 46.527344 145.785156 C 46.09375 145.785156 45.652344 145.722656 45.210938 145.597656 C 42.707031 144.871094 41.265625 142.253906 41.988281 139.75 C 46.152344 125.363281 46.535156 110.054688 43.105469 95.480469 C 42.507812 92.941406 44.082031 90.398438 46.621094 89.804688 C 49.160156 89.207031 51.699219 90.777344 52.296875 93.316406 C 56.097656 109.46875 55.671875 126.433594 51.058594 142.375 C 50.460938 144.441406 48.574219 145.785156 46.527344 145.785156 Z M 46.527344 145.785156 " fill-opacity="1" fill-rule="nonzero"/></g><path fill="#4b2d25" d="M 103.191406 120.058594 C 101.910156 120.058594 100.675781 119.535156 99.777344 118.597656 C 98.71875 117.488281 98.265625 115.941406 98.554688 114.4375 C 100.933594 102.160156 99.617188 88.570312 94.9375 77.160156 C 93.949219 74.746094 95.105469 71.988281 97.515625 71 C 99.925781 70.011719 102.683594 71.164062 103.675781 73.578125 C 108.21875 84.664062 109.996094 97.53125 108.773438 109.75 L 125.457031 107.3125 C 128.042969 106.933594 130.433594 108.722656 130.8125 111.300781 C 131.1875 113.878906 129.402344 116.277344 126.824219 116.652344 L 103.875 120.003906 C 103.644531 120.039062 103.417969 120.058594 103.191406 120.058594 Z M 103.191406 120.058594 " fill-opacity="1" fill-rule="nonzero"/><path fill="#4b2d25" d="M 122.835938 142.644531 C 122.402344 142.644531 121.960938 142.582031 121.523438 142.457031 C 119.015625 141.734375 117.574219 139.113281 118.296875 136.609375 C 122.460938 122.226562 122.84375 106.917969 119.414062 92.339844 C 118.816406 89.800781 120.390625 87.261719 122.925781 86.664062 C 125.46875 86.066406 128.007812 87.636719 128.605469 90.175781 C 132.40625 106.328125 131.976562 123.292969 127.367188 139.234375 C 126.769531 141.300781 124.882812 142.644531 122.835938 142.644531 Z M 122.835938 142.644531 " fill-opacity="1" fill-rule="nonzero"/><path fill="#4b2d25" d="M 73.761719 144.785156 C 69.261719 144.785156 64.269531 143.300781 62.101562 139.050781 C 60.804688 136.503906 60.902344 133.402344 60.984375 130.664062 C 61.011719 129.800781 61.039062 128.90625 61 128.378906 C 60.464844 121.5625 59.925781 114.742188 59.386719 107.925781 L 58.625 98.296875 C 58.25 93.574219 57.789062 87.695312 59.972656 82.21875 C 62.285156 76.414062 67.433594 72.09375 73.085938 71.207031 C 79.128906 70.257812 85.324219 73.269531 88.496094 78.699219 C 90.28125 81.75 90.957031 85.160156 91.5 88.390625 C 93.199219 98.519531 94.207031 108.890625 94.492188 119.214844 C 94.625 124.003906 94.550781 129.523438 92.011719 134.390625 C 88.96875 140.21875 82.8125 144.074219 75.542969 144.707031 C 74.964844 144.757812 74.367188 144.785156 73.761719 144.785156 Z M 70.515625 134.714844 C 70.984375 135.046875 72.640625 135.484375 74.722656 135.300781 C 77.84375 135.027344 81.828125 133.5 83.640625 130.023438 C 85.136719 127.160156 85.15625 123.242188 85.054688 119.476562 C 84.78125 109.585938 83.816406 99.652344 82.191406 89.953125 C 81.777344 87.488281 81.324219 85.136719 80.347656 83.464844 C 79.136719 81.394531 76.75 80.191406 74.546875 80.535156 C 72.160156 80.910156 69.828125 82.992188 68.746094 85.714844 C 67.375 89.148438 67.726562 93.613281 68.039062 97.554688 L 68.796875 107.179688 C 69.339844 114 69.878906 120.820312 70.414062 127.644531 C 70.492188 128.683594 70.460938 129.789062 70.421875 130.957031 C 70.390625 132.023438 70.328125 133.953125 70.515625 134.714844 Z M 70.515625 134.714844 " fill-opacity="1" fill-rule="nonzero"/><path fill="#73574b" d="M 28.699219 102.855469 C 27.523438 102.855469 26.554688 101.917969 26.523438 100.734375 C 26.320312 93.09375 24.757812 85.625 21.886719 78.535156 C 21.433594 77.421875 21.96875 76.152344 23.085938 75.699219 C 24.203125 75.246094 25.472656 75.78125 25.925781 76.898438 C 28.996094 84.472656 30.660156 92.453125 30.878906 100.621094 C 30.910156 101.824219 29.960938 102.824219 28.757812 102.855469 C 28.738281 102.855469 28.71875 102.855469 28.699219 102.855469 Z M 28.699219 102.855469 " fill-opacity="1" fill-rule="nonzero"/><path fill="#73574b" d="M 51.183594 107.820312 C 51.132812 107.820312 51.082031 107.816406 51.03125 107.8125 C 49.832031 107.730469 48.925781 106.691406 49.007812 105.488281 C 49.257812 101.90625 48.585938 98.292969 47.074219 95.035156 C 46.566406 93.945312 47.042969 92.648438 48.132812 92.140625 C 49.222656 91.632812 50.519531 92.109375 51.027344 93.199219 C 52.847656 97.121094 53.652344 101.476562 53.355469 105.789062 C 53.277344 106.9375 52.320312 107.820312 51.183594 107.820312 Z M 51.183594 107.820312 " fill-opacity="1" fill-rule="nonzero"/><path fill="#73574b" d="M 35.195312 118.199219 C 34.144531 118.199219 33.21875 117.433594 33.046875 116.363281 C 32.855469 115.171875 33.667969 114.058594 34.855469 113.867188 L 42.363281 112.671875 C 43.542969 112.480469 44.667969 113.292969 44.855469 114.480469 C 45.046875 115.667969 44.238281 116.785156 43.046875 116.976562 L 35.542969 118.171875 C 35.425781 118.1875 35.308594 118.199219 35.195312 118.199219 Z M 35.195312 118.199219 " fill-opacity="1" fill-rule="nonzero"/><path fill="#73574b" d="M 62.710938 101.390625 C 61.613281 101.390625 60.667969 100.5625 60.546875 99.445312 C 60.09375 95.25 59.582031 90.492188 60.523438 85.894531 C 61.628906 80.507812 64.765625 76.121094 68.917969 74.167969 C 70.003906 73.652344 71.304688 74.121094 71.816406 75.210938 C 72.328125 76.296875 71.863281 77.597656 70.773438 78.109375 C 67.855469 79.484375 65.621094 82.71875 64.792969 86.769531 C 63.988281 90.703125 64.441406 94.910156 64.878906 98.980469 C 65.011719 100.175781 64.144531 101.25 62.949219 101.378906 C 62.871094 101.386719 62.789062 101.390625 62.710938 101.390625 Z M 62.710938 101.390625 " fill-opacity="1" fill-rule="nonzero"/><path fill="#73574b" d="M 80.953125 78.484375 C 80.488281 78.484375 80.019531 78.339844 79.621094 78.03125 C 78.820312 77.410156 77.746094 77.121094 76.746094 77.253906 C 75.546875 77.414062 74.460938 76.570312 74.304688 75.375 C 74.148438 74.179688 74.988281 73.089844 76.183594 72.933594 C 78.34375 72.652344 80.5625 73.253906 82.285156 74.582031 C 83.238281 75.320312 83.414062 76.6875 82.679688 77.640625 C 82.25 78.195312 81.605469 78.484375 80.953125 78.484375 Z M 80.953125 78.484375 " fill-opacity="1" fill-rule="nonzero"/><path fill="#73574b" d="M 102.472656 95.835938 C 102.464844 95.835938 102.460938 95.835938 102.457031 95.835938 C 101.253906 95.824219 100.285156 94.84375 100.292969 93.640625 C 100.328125 88.914062 99.164062 84.210938 96.929688 80.046875 C 96.359375 78.984375 96.757812 77.664062 97.816406 77.09375 C 98.875 76.523438 100.199219 76.925781 100.765625 77.984375 C 103.347656 82.792969 104.691406 88.214844 104.652344 93.671875 C 104.640625 94.871094 103.667969 95.835938 102.472656 95.835938 Z M 102.472656 95.835938 " fill-opacity="1" fill-rule="nonzero"/><path fill="#73574b" d="M 104.597656 118.460938 C 103.636719 118.460938 102.542969 118.214844 101.65625 117.3125 C 100.375 116.015625 100.46875 114.242188 100.515625 113.386719 L 100.871094 106.644531 C 100.9375 105.441406 101.953125 104.519531 103.164062 104.585938 C 104.363281 104.648438 105.289062 105.671875 105.222656 106.875 L 104.867188 113.621094 C 104.855469 113.8125 104.851562 113.964844 104.851562 114.082031 C 105.007812 114.058594 105.226562 114.019531 105.527344 113.941406 C 106.691406 113.644531 107.882812 114.34375 108.179688 115.507812 C 108.480469 116.675781 107.777344 117.863281 106.613281 118.160156 C 106.191406 118.269531 105.445312 118.460938 104.597656 118.460938 Z M 104.882812 114.441406 L 104.890625 114.441406 Z M 104.882812 114.441406 " fill-opacity="1" fill-rule="nonzero"/><path fill="#73574b" d="M 124.117188 107.214844 C 122.910156 107.210938 121.9375 106.234375 121.9375 105.035156 C 121.9375 101.789062 121.457031 98.574219 120.507812 95.46875 C 120.15625 94.320312 120.800781 93.101562 121.953125 92.75 C 123.101562 92.394531 124.320312 93.042969 124.671875 94.191406 C 125.75 97.710938 126.296875 101.359375 126.292969 105.035156 C 126.292969 106.238281 125.320312 107.214844 124.117188 107.214844 Z M 124.117188 107.214844 " fill-opacity="1" fill-rule="nonzero"/><path fill="#73574b" d="M 78.296875 142.335938 C 77.257812 142.335938 76.335938 141.589844 76.152344 140.53125 C 75.945312 139.347656 76.738281 138.21875 77.921875 138.011719 C 81.546875 137.375 84.816406 134.777344 86.246094 131.386719 C 86.714844 130.277344 87.992188 129.757812 89.101562 130.226562 C 90.210938 130.691406 90.726562 131.96875 90.261719 133.078125 C 88.238281 137.871094 83.796875 141.40625 78.675781 142.300781 C 78.546875 142.324219 78.421875 142.335938 78.296875 142.335938 Z M 78.296875 142.335938 " fill-opacity="1" fill-rule="nonzero"/><path fill="#73574b" d="M 46.296875 143.894531 C 45.5625 143.894531 44.824219 143.746094 44.132812 143.441406 C 43.03125 142.953125 42.535156 141.667969 43.023438 140.566406 C 43.511719 139.464844 44.800781 138.96875 45.898438 139.457031 C 46.296875 139.632812 46.902344 139.484375 47.171875 139.144531 C 47.921875 138.203125 49.292969 138.042969 50.234375 138.792969 C 51.175781 139.539062 51.335938 140.910156 50.585938 141.851562 C 49.542969 143.167969 47.929688 143.894531 46.296875 143.894531 Z M 46.296875 143.894531 " fill-opacity="1" fill-rule="nonzero"/><path fill="#73574b" d="M 123.316406 141.46875 C 123.003906 141.46875 122.6875 141.398438 122.386719 141.257812 C 121.300781 140.742188 120.835938 139.441406 121.351562 138.355469 C 122.425781 136.085938 123.175781 133.675781 123.582031 131.191406 C 123.773438 130.003906 124.890625 129.199219 126.082031 129.390625 C 127.269531 129.585938 128.074219 130.703125 127.882812 131.890625 C 127.410156 134.777344 126.539062 137.578125 125.289062 140.21875 C 124.917969 141.007812 124.132812 141.46875 123.316406 141.46875 Z M 123.316406 141.46875 " fill-opacity="1" fill-rule="nonzero"/></svg>